<?xml version="1.0" encoding="UTF-8"?>
<svg xmlns="http://www.w3.org/2000/svg" xmlns:xlink="http://www.w3.org/1999/xlink" width="160px" height="160px" viewBox="0 0 160 160" version="1.1">
<g id="surface1">
<path style=" stroke:none;fill-rule:nonzero;fill:rgb(0%,0%,0%);fill-opacity:1;" d="M 86.230469 39.167969 C 86.226562 39.167969 86.097656 39.175781 85.9375 39.183594 C 85.761719 39.191406 85.625 39.214844 85.585938 39.253906 C 85.515625 39.308594 85.511719 39.703125 85.511719 46.476562 C 85.511719 53.574219 85.511719 53.644531 85.59375 53.6875 C 85.671875 53.734375 92.1875 53.75 92.261719 53.703125 C 92.28125 53.691406 92.296875 52.042969 92.296875 49.855469 C 92.296875 47.515625 92.316406 46.003906 92.339844 45.964844 C 92.371094 45.914062 93.183594 45.90625 99.316406 45.917969 C 105.289062 45.929688 106.269531 45.941406 106.351562 45.992188 L 106.441406 46.046875 L 106.441406 49.8125 C 106.441406 52.328125 106.453125 53.597656 106.484375 53.652344 C 106.523438 53.730469 106.605469 53.730469 109.808594 53.730469 C 111.746094 53.730469 113.109375 53.710938 113.148438 53.6875 C 113.195312 53.65625 113.203125 52.742188 113.195312 46.488281 C 113.1875 39.628906 113.183594 39.320312 113.113281 39.25 C 113.070312 39.207031 112.980469 39.175781 112.898438 39.175781 C 112.824219 39.175781 106.902344 39.175781 99.734375 39.175781 C 92.570312 39.175781 86.605469 39.175781 86.472656 39.167969 C 86.34375 39.164062 86.234375 39.164062 86.230469 39.167969 Z M 86.230469 39.167969 "/>
<path style=" stroke:none;fill-rule:nonzero;fill:rgb(0%,0%,0%);fill-opacity:1;" d="M 106.425781 60.078125 C 106.367188 60.160156 106.359375 60.519531 106.359375 63.402344 C 106.363281 66.476562 106.375 66.929688 106.472656 67.027344 C 106.511719 67.0625 113.394531 67.066406 122.527344 67.039062 C 124.363281 67.035156 124.953125 67.042969 125.003906 67.078125 C 125.066406 67.128906 125.066406 67.148438 125.007812 67.347656 C 124.921875 67.636719 124.859375 67.816406 124.765625 68.027344 C 124.722656 68.121094 124.691406 68.230469 124.691406 68.269531 C 124.691406 68.3125 124.664062 68.378906 124.632812 68.425781 C 124.601562 68.46875 124.558594 68.578125 124.546875 68.667969 C 124.53125 68.753906 124.496094 68.855469 124.464844 68.886719 C 124.433594 68.921875 124.398438 69.023438 124.386719 69.113281 C 124.367188 69.203125 124.332031 69.304688 124.304688 69.335938 C 124.277344 69.367188 124.238281 69.460938 124.222656 69.539062 C 124.207031 69.617188 124.167969 69.722656 124.136719 69.769531 C 124.105469 69.820312 124.082031 69.894531 124.082031 69.9375 C 124.082031 69.976562 124.042969 70.078125 124 70.167969 C 123.953125 70.257812 123.917969 70.363281 123.917969 70.414062 C 123.917969 70.457031 123.882812 70.546875 123.835938 70.617188 C 123.792969 70.679688 123.753906 70.777344 123.753906 70.832031 C 123.753906 70.878906 123.71875 70.988281 123.675781 71.070312 C 123.628906 71.15625 123.59375 71.261719 123.59375 71.308594 C 123.59375 71.351562 123.570312 71.425781 123.535156 71.46875 C 123.507812 71.515625 123.464844 71.617188 123.449219 71.691406 C 123.433594 71.769531 123.398438 71.871094 123.371094 71.917969 C 123.339844 71.960938 123.304688 72.0625 123.289062 72.140625 C 123.273438 72.21875 123.234375 72.320312 123.207031 72.363281 C 123.179688 72.40625 123.140625 72.507812 123.125 72.585938 C 123.109375 72.664062 123.070312 72.765625 123.039062 72.808594 C 123.007812 72.855469 122.984375 72.929688 122.984375 72.972656 C 122.984375 73.019531 122.945312 73.125 122.902344 73.207031 C 122.855469 73.289062 122.820312 73.394531 122.820312 73.441406 C 122.820312 73.488281 122.785156 73.59375 122.738281 73.683594 C 122.695312 73.773438 122.65625 73.875 122.65625 73.910156 C 122.65625 73.949219 122.628906 74.027344 122.597656 74.082031 C 122.53125 74.199219 122.433594 74.457031 122.355469 74.71875 C 122.332031 74.808594 122.289062 74.917969 122.265625 74.964844 C 122.238281 75.007812 122.207031 75.109375 122.191406 75.1875 C 122.175781 75.265625 122.132812 75.367188 122.105469 75.410156 C 122.074219 75.457031 122.046875 75.53125 122.046875 75.574219 C 122.046875 75.617188 122.011719 75.726562 121.96875 75.816406 C 121.921875 75.90625 121.886719 76.007812 121.886719 76.050781 C 121.886719 76.089844 121.847656 76.179688 121.804688 76.253906 C 121.761719 76.324219 121.722656 76.421875 121.722656 76.46875 C 121.722656 76.515625 121.6875 76.621094 121.640625 76.710938 C 121.597656 76.800781 121.5625 76.910156 121.5625 76.957031 C 121.5625 77 121.535156 77.074219 121.503906 77.117188 C 121.476562 77.164062 121.433594 77.265625 121.417969 77.34375 C 121.402344 77.417969 121.367188 77.519531 121.335938 77.566406 C 121.308594 77.609375 121.273438 77.710938 121.253906 77.789062 C 121.238281 77.867188 121.203125 77.96875 121.175781 78.011719 C 121.144531 78.058594 121.109375 78.160156 121.09375 78.234375 C 121.078125 78.3125 121.035156 78.414062 121.007812 78.460938 C 120.976562 78.503906 120.949219 78.585938 120.949219 78.640625 C 120.949219 78.699219 120.914062 78.804688 120.871094 78.878906 C 120.824219 78.953125 120.789062 79.042969 120.789062 79.089844 C 120.789062 79.132812 120.75 79.226562 120.707031 79.300781 C 120.664062 79.375 120.625 79.472656 120.625 79.519531 C 120.625 79.566406 120.589844 79.679688 120.542969 79.773438 C 120.5 79.863281 120.464844 79.972656 120.464844 80.011719 C 120.464844 80.054688 120.4375 80.125 120.40625 80.171875 C 120.375 80.214844 120.332031 80.324219 120.320312 80.414062 C 120.304688 80.5 120.269531 80.601562 120.238281 80.632812 C 120.210938 80.667969 120.175781 80.773438 120.160156 80.867188 C 120.144531 80.960938 120.105469 81.058594 120.074219 81.085938 C 120.039062 81.109375 120.015625 81.171875 120.015625 81.21875 C 120.015625 81.269531 119.980469 81.378906 119.933594 81.46875 C 119.890625 81.554688 119.855469 81.65625 119.855469 81.699219 C 119.855469 81.738281 119.820312 81.847656 119.777344 81.941406 C 119.734375 82.039062 119.679688 82.183594 119.652344 82.257812 C 119.625 82.335938 119.582031 82.453125 119.5625 82.523438 C 119.535156 82.589844 119.484375 82.71875 119.441406 82.8125 C 119.398438 82.90625 119.367188 83.019531 119.367188 83.0625 C 119.367188 83.109375 119.351562 83.160156 119.324219 83.175781 C 119.304688 83.1875 119.269531 83.277344 119.242188 83.371094 C 119.21875 83.460938 119.175781 83.59375 119.140625 83.660156 C 119.109375 83.726562 119.066406 83.859375 119.039062 83.953125 C 119.015625 84.046875 118.980469 84.136719 118.960938 84.148438 C 118.933594 84.160156 118.917969 84.21875 118.917969 84.277344 C 118.917969 84.332031 118.882812 84.445312 118.835938 84.535156 C 118.792969 84.625 118.757812 84.722656 118.757812 84.753906 C 118.757812 84.792969 118.722656 84.898438 118.679688 84.992188 C 118.636719 85.089844 118.582031 85.230469 118.554688 85.308594 C 118.527344 85.386719 118.484375 85.503906 118.464844 85.570312 C 118.4375 85.636719 118.386719 85.765625 118.347656 85.859375 C 118.300781 85.953125 118.269531 86.0625 118.269531 86.105469 C 118.269531 86.144531 118.238281 86.21875 118.207031 86.257812 C 118.175781 86.304688 118.148438 86.375 118.148438 86.425781 C 118.148438 86.46875 118.109375 86.574219 118.066406 86.660156 C 118.019531 86.742188 117.984375 86.851562 117.984375 86.902344 C 117.984375 86.953125 117.949219 87.046875 117.902344 87.117188 C 117.859375 87.179688 117.820312 87.273438 117.820312 87.320312 C 117.820312 87.363281 117.789062 87.484375 117.753906 87.597656 C 117.628906 87.941406 117.339844 87.914062 121.300781 87.910156 C 125.113281 87.90625 124.941406 87.917969 125 87.671875 C 125.011719 87.613281 125.058594 87.492188 125.101562 87.398438 C 125.140625 87.308594 125.179688 87.183594 125.179688 87.128906 C 125.179688 87.070312 125.203125 87.003906 125.234375 86.976562 C 125.261719 86.953125 125.300781 86.855469 125.316406 86.765625 C 125.332031 86.675781 125.367188 86.5625 125.398438 86.515625 C 125.429688 86.464844 125.464844 86.351562 125.484375 86.265625 C 125.5 86.175781 125.535156 86.066406 125.566406 86.023438 C 125.601562 85.976562 125.625 85.898438 125.625 85.84375 C 125.625 85.796875 125.660156 85.683594 125.707031 85.59375 C 125.75 85.503906 125.789062 85.394531 125.789062 85.347656 C 125.789062 85.304688 125.824219 85.195312 125.867188 85.105469 C 125.914062 85.015625 125.949219 84.90625 125.949219 84.859375 C 125.949219 84.8125 125.976562 84.722656 126.011719 84.660156 C 126.042969 84.597656 126.089844 84.476562 126.109375 84.390625 C 126.148438 84.222656 126.253906 83.90625 126.339844 83.703125 C 126.363281 83.632812 126.402344 83.515625 126.417969 83.4375 C 126.433594 83.359375 126.472656 83.257812 126.503906 83.214844 C 126.535156 83.171875 126.558594 83.09375 126.558594 83.039062 C 126.558594 82.992188 126.597656 82.878906 126.640625 82.789062 C 126.6875 82.699219 126.722656 82.589844 126.722656 82.542969 C 126.722656 82.5 126.757812 82.390625 126.804688 82.300781 C 126.847656 82.210938 126.886719 82.101562 126.886719 82.054688 C 126.886719 82.007812 126.914062 81.917969 126.945312 81.855469 C 126.976562 81.792969 127.023438 81.671875 127.042969 81.585938 C 127.082031 81.421875 127.195312 81.089844 127.257812 80.9375 C 127.332031 80.757812 127.460938 80.359375 127.496094 80.195312 C 127.515625 80.097656 127.558594 79.980469 127.597656 79.929688 C 127.628906 79.882812 127.65625 79.792969 127.65625 79.726562 C 127.65625 79.667969 127.695312 79.542969 127.738281 79.457031 C 127.78125 79.367188 127.820312 79.265625 127.820312 79.222656 C 127.820312 79.179688 127.855469 79.078125 127.902344 78.988281 C 127.945312 78.898438 127.980469 78.800781 127.980469 78.769531 C 127.980469 78.730469 128.015625 78.613281 128.058594 78.5 C 128.160156 78.230469 128.222656 78.054688 128.285156 77.828125 C 128.410156 77.425781 128.476562 77.238281 128.535156 77.125 C 128.5625 77.0625 128.589844 76.964844 128.589844 76.910156 C 128.589844 76.859375 128.628906 76.746094 128.671875 76.664062 C 128.71875 76.578125 128.753906 76.46875 128.753906 76.414062 C 128.753906 76.367188 128.789062 76.253906 128.835938 76.164062 C 128.878906 76.074219 128.917969 75.964844 128.917969 75.917969 C 128.917969 75.875 128.953125 75.765625 129 75.675781 C 129.042969 75.585938 129.078125 75.480469 129.078125 75.4375 C 129.078125 75.390625 129.109375 75.304688 129.136719 75.242188 C 129.191406 75.136719 129.246094 74.980469 129.382812 74.539062 C 129.523438 74.09375 129.574219 73.941406 129.632812 73.835938 C 129.660156 73.769531 129.6875 73.671875 129.6875 73.621094 C 129.6875 73.566406 129.726562 73.453125 129.769531 73.371094 C 129.816406 73.285156 129.851562 73.1875 129.851562 73.152344 C 129.851562 73.113281 129.886719 73.003906 129.933594 72.90625 C 129.976562 72.808594 130.015625 72.683594 130.015625 72.628906 C 130.015625 72.570312 130.042969 72.492188 130.074219 72.453125 C 130.105469 72.40625 130.144531 72.300781 130.160156 72.207031 C 130.171875 72.117188 130.210938 72 130.242188 71.957031 C 130.269531 71.914062 130.308594 71.800781 130.324219 71.714844 C 130.339844 71.625 130.375 71.515625 130.40625 71.46875 C 130.4375 71.425781 130.460938 71.347656 130.460938 71.292969 C 130.460938 71.246094 130.496094 71.132812 130.542969 71.042969 C 130.585938 70.953125 130.625 70.84375 130.625 70.796875 C 130.625 70.753906 130.660156 70.644531 130.707031 70.554688 C 130.75 70.464844 130.785156 70.355469 130.785156 70.3125 C 130.785156 70.261719 130.820312 70.167969 130.855469 70.09375 C 130.890625 70.023438 130.9375 69.902344 130.953125 69.824219 C 130.984375 69.671875 131.089844 69.359375 131.179688 69.144531 C 131.210938 69.074219 131.246094 68.957031 131.261719 68.878906 C 131.273438 68.808594 131.3125 68.710938 131.335938 68.664062 C 131.363281 68.621094 131.398438 68.511719 131.417969 68.425781 C 131.429688 68.339844 131.464844 68.230469 131.496094 68.179688 C 131.527344 68.132812 131.5625 68.027344 131.578125 67.9375 C 131.589844 67.851562 131.628906 67.726562 131.660156 67.652344 C 131.6875 67.582031 131.734375 67.453125 131.757812 67.363281 C 131.78125 67.269531 131.839844 67.15625 131.882812 67.109375 L 131.964844 67.019531 L 136.503906 67.019531 C 140.523438 67.019531 141.050781 67.011719 141.109375 66.957031 C 141.164062 66.902344 141.171875 66.496094 141.171875 63.542969 C 141.171875 60.246094 141.171875 60.191406 141.089844 60.113281 C 141.007812 60.035156 140.722656 60.035156 123.746094 60.011719 L 106.492188 59.984375 Z M 106.425781 60.078125 "/>
<path style=" stroke:none;fill-rule:nonzero;fill:rgb(0%,0%,0%);fill-opacity:1;" d="M 15.835938 60.09375 C 15.75 60.179688 15.753906 60.347656 15.851562 60.625 C 15.894531 60.757812 15.933594 60.90625 15.933594 60.96875 C 15.933594 61.023438 15.96875 61.179688 16.011719 61.308594 C 16.058594 61.4375 16.09375 61.597656 16.09375 61.65625 C 16.09375 61.722656 16.132812 61.867188 16.175781 61.980469 C 16.21875 62.09375 16.257812 62.238281 16.257812 62.308594 C 16.257812 62.375 16.285156 62.484375 16.316406 62.542969 C 16.351562 62.609375 16.386719 62.738281 16.402344 62.835938 C 16.414062 62.933594 16.453125 63.082031 16.480469 63.15625 C 16.507812 63.234375 16.546875 63.382812 16.5625 63.484375 C 16.574219 63.585938 16.609375 63.71875 16.644531 63.789062 C 16.671875 63.851562 16.707031 64.011719 16.722656 64.132812 C 16.742188 64.253906 16.777344 64.394531 16.804688 64.4375 C 16.832031 64.484375 16.867188 64.613281 16.878906 64.730469 C 16.890625 64.847656 16.929688 64.996094 16.964844 65.0625 C 17 65.128906 17.027344 65.238281 17.027344 65.304688 C 17.027344 65.367188 17.058594 65.503906 17.09375 65.601562 C 17.128906 65.699219 17.175781 65.867188 17.191406 65.984375 C 17.230469 66.21875 17.34375 66.65625 17.402344 66.835938 C 17.425781 66.902344 17.46875 67.066406 17.496094 67.203125 C 17.519531 67.335938 17.5625 67.492188 17.585938 67.546875 C 17.609375 67.605469 17.644531 67.75 17.660156 67.871094 C 17.675781 67.996094 17.710938 68.132812 17.742188 68.175781 C 17.769531 68.222656 17.804688 68.359375 17.816406 68.480469 C 17.832031 68.605469 17.867188 68.726562 17.886719 68.753906 C 17.910156 68.777344 17.949219 68.925781 17.96875 69.074219 C 17.988281 69.226562 18.023438 69.371094 18.046875 69.394531 C 18.066406 69.421875 18.09375 69.523438 18.105469 69.621094 C 18.121094 69.722656 18.167969 69.910156 18.210938 70.039062 C 18.253906 70.164062 18.289062 70.328125 18.289062 70.394531 C 18.289062 70.460938 18.316406 70.570312 18.347656 70.632812 C 18.378906 70.691406 18.417969 70.84375 18.433594 70.964844 C 18.453125 71.085938 18.484375 71.230469 18.511719 71.285156 C 18.539062 71.34375 18.578125 71.488281 18.59375 71.613281 C 18.609375 71.734375 18.648438 71.878906 18.675781 71.9375 C 18.703125 71.992188 18.738281 72.128906 18.757812 72.242188 C 18.773438 72.351562 18.808594 72.496094 18.835938 72.566406 C 18.867188 72.632812 18.902344 72.773438 18.914062 72.882812 C 18.925781 72.988281 18.964844 73.132812 19 73.195312 C 19.03125 73.261719 19.0625 73.367188 19.0625 73.429688 C 19.0625 73.492188 19.097656 73.648438 19.140625 73.777344 C 19.1875 73.902344 19.222656 74.050781 19.222656 74.101562 C 19.222656 74.152344 19.261719 74.296875 19.304688 74.429688 C 19.351562 74.554688 19.386719 74.710938 19.386719 74.78125 C 19.386719 74.851562 19.410156 74.957031 19.441406 75.015625 C 19.476562 75.078125 19.511719 75.21875 19.527344 75.332031 C 19.542969 75.445312 19.582031 75.585938 19.609375 75.65625 C 19.636719 75.71875 19.675781 75.878906 19.691406 76 C 19.707031 76.121094 19.742188 76.261719 19.769531 76.304688 C 19.796875 76.351562 19.832031 76.484375 19.851562 76.605469 C 19.867188 76.726562 19.902344 76.875 19.929688 76.929688 C 19.960938 76.988281 19.996094 77.132812 20.007812 77.257812 C 20.023438 77.375 20.054688 77.492188 20.074219 77.519531 C 20.09375 77.546875 20.128906 77.679688 20.15625 77.816406 C 20.175781 77.957031 20.210938 78.101562 20.234375 78.148438 C 20.257812 78.1875 20.289062 78.320312 20.304688 78.445312 C 20.320312 78.566406 20.359375 78.710938 20.386719 78.769531 C 20.414062 78.824219 20.449219 78.972656 20.46875 79.09375 C 20.484375 79.214844 20.519531 79.351562 20.546875 79.394531 C 20.578125 79.4375 20.613281 79.585938 20.628906 79.71875 C 20.644531 79.855469 20.679688 80 20.707031 80.042969 C 20.734375 80.089844 20.773438 80.222656 20.785156 80.34375 C 20.800781 80.46875 20.835938 80.613281 20.867188 80.671875 C 20.894531 80.726562 20.929688 80.875 20.941406 80.996094 C 20.960938 81.113281 20.988281 81.230469 21.007812 81.261719 C 21.03125 81.289062 21.0625 81.390625 21.074219 81.488281 C 21.089844 81.589844 21.132812 81.777344 21.179688 81.90625 C 21.21875 82.03125 21.253906 82.195312 21.253906 82.265625 C 21.253906 82.328125 21.28125 82.433594 21.3125 82.496094 C 21.34375 82.554688 21.382812 82.699219 21.398438 82.808594 C 21.414062 82.921875 21.449219 83.070312 21.480469 83.132812 C 21.511719 83.203125 21.546875 83.355469 21.566406 83.480469 C 21.582031 83.601562 21.617188 83.738281 21.640625 83.785156 C 21.671875 83.828125 21.707031 83.976562 21.722656 84.109375 C 21.738281 84.242188 21.777344 84.386719 21.808594 84.429688 C 21.839844 84.476562 21.867188 84.578125 21.867188 84.65625 C 21.871094 84.734375 21.898438 84.871094 21.929688 84.960938 C 21.96875 85.050781 22.011719 85.234375 22.03125 85.363281 C 22.050781 85.5 22.089844 85.628906 22.109375 85.652344 C 22.132812 85.683594 22.164062 85.792969 22.175781 85.902344 C 22.1875 86.011719 22.234375 86.199219 22.277344 86.316406 C 22.316406 86.433594 22.351562 86.585938 22.351562 86.652344 C 22.351562 86.71875 22.378906 86.824219 22.410156 86.886719 C 22.441406 86.945312 22.480469 87.082031 22.496094 87.199219 C 22.515625 87.308594 22.570312 87.492188 22.621094 87.609375 C 22.710938 87.816406 22.714844 87.816406 22.933594 87.839844 C 23.085938 87.859375 34.605469 87.882812 36.457031 87.867188 C 36.550781 87.867188 36.664062 87.648438 36.71875 87.363281 C 36.75 87.226562 36.792969 87.058594 36.8125 86.996094 C 36.871094 86.839844 36.976562 86.410156 37.027344 86.125 C 37.050781 86.007812 37.09375 85.855469 37.125 85.792969 C 37.160156 85.730469 37.1875 85.617188 37.1875 85.542969 C 37.1875 85.46875 37.222656 85.3125 37.269531 85.195312 C 37.3125 85.078125 37.351562 84.925781 37.351562 84.855469 C 37.351562 84.789062 37.378906 84.675781 37.410156 84.605469 C 37.445312 84.53125 37.488281 84.355469 37.507812 84.21875 C 37.53125 84.078125 37.566406 83.9375 37.589844 83.914062 C 37.609375 83.886719 37.640625 83.773438 37.65625 83.660156 C 37.671875 83.546875 37.707031 83.414062 37.734375 83.355469 C 37.765625 83.300781 37.800781 83.152344 37.816406 83.03125 C 37.832031 82.910156 37.871094 82.761719 37.898438 82.707031 C 37.925781 82.648438 37.960938 82.507812 37.976562 82.386719 C 37.992188 82.265625 38.03125 82.113281 38.066406 82.050781 C 38.09375 81.992188 38.121094 81.878906 38.121094 81.804688 C 38.121094 81.730469 38.160156 81.574219 38.203125 81.453125 C 38.25 81.335938 38.285156 81.191406 38.285156 81.128906 C 38.285156 81.070312 38.320312 80.921875 38.367188 80.804688 C 38.410156 80.6875 38.449219 80.535156 38.449219 80.46875 C 38.449219 80.402344 38.476562 80.292969 38.503906 80.230469 C 38.535156 80.171875 38.578125 80.019531 38.59375 79.898438 C 38.609375 79.777344 38.640625 79.632812 38.671875 79.578125 C 38.699219 79.519531 38.734375 79.375 38.753906 79.253906 C 38.769531 79.128906 38.804688 78.992188 38.828125 78.949219 C 38.859375 78.902344 38.894531 78.769531 38.910156 78.648438 C 38.925781 78.523438 38.96875 78.375 39 78.3125 C 39.027344 78.253906 39.058594 78.144531 39.058594 78.074219 C 39.058594 78.003906 39.09375 77.847656 39.136719 77.71875 C 39.183594 77.589844 39.21875 77.441406 39.21875 77.382812 C 39.21875 77.324219 39.257812 77.183594 39.300781 77.066406 C 39.34375 76.949219 39.382812 76.796875 39.382812 76.726562 C 39.382812 76.664062 39.410156 76.554688 39.4375 76.492188 C 39.472656 76.429688 39.511719 76.28125 39.527344 76.160156 C 39.542969 76.039062 39.578125 75.894531 39.605469 75.839844 C 39.632812 75.78125 39.671875 75.636719 39.6875 75.511719 C 39.703125 75.390625 39.738281 75.253906 39.765625 75.207031 C 39.792969 75.164062 39.828125 75.03125 39.84375 74.90625 C 39.863281 74.785156 39.898438 74.640625 39.925781 74.582031 C 39.957031 74.527344 39.992188 74.378906 40.007812 74.257812 C 40.023438 74.136719 40.066406 73.984375 40.097656 73.925781 C 40.125 73.863281 40.15625 73.75 40.15625 73.675781 C 40.15625 73.601562 40.191406 73.445312 40.234375 73.328125 C 40.28125 73.207031 40.316406 73.0625 40.316406 73 C 40.316406 72.941406 40.355469 72.792969 40.398438 72.675781 C 40.441406 72.558594 40.480469 72.40625 40.480469 72.339844 C 40.480469 72.273438 40.507812 72.164062 40.535156 72.101562 C 40.570312 72.042969 40.609375 71.890625 40.625 71.769531 C 40.636719 71.648438 40.675781 71.515625 40.703125 71.46875 C 40.730469 71.425781 40.765625 71.277344 40.785156 71.144531 C 40.800781 71.011719 40.835938 70.855469 40.867188 70.796875 C 40.894531 70.742188 40.925781 70.605469 40.9375 70.484375 C 40.949219 70.367188 40.992188 70.222656 41.023438 70.152344 C 41.0625 70.085938 41.089844 69.980469 41.089844 69.925781 C 41.089844 69.867188 41.125 69.71875 41.171875 69.589844 C 41.214844 69.460938 41.25 69.308594 41.25 69.246094 C 41.25 69.183594 41.289062 69.042969 41.332031 68.929688 C 41.378906 68.816406 41.414062 68.667969 41.414062 68.601562 C 41.414062 68.535156 41.441406 68.425781 41.472656 68.363281 C 41.503906 68.304688 41.542969 68.152344 41.5625 68.03125 C 41.578125 67.910156 41.609375 67.765625 41.636719 67.710938 C 41.667969 67.652344 41.703125 67.507812 41.71875 67.382812 C 41.734375 67.261719 41.773438 67.125 41.800781 67.078125 C 41.828125 67.035156 41.867188 66.902344 41.878906 66.777344 C 41.894531 66.65625 41.933594 66.507812 41.96875 66.445312 C 41.996094 66.386719 42.023438 66.273438 42.023438 66.207031 C 42.023438 66.136719 42.0625 65.976562 42.105469 65.851562 C 42.148438 65.722656 42.1875 65.574219 42.1875 65.527344 C 42.1875 65.472656 42.222656 65.328125 42.269531 65.203125 C 42.3125 65.070312 42.347656 64.917969 42.347656 64.851562 C 42.347656 64.792969 42.378906 64.683594 42.414062 64.617188 C 42.445312 64.546875 42.488281 64.402344 42.5 64.285156 C 42.511719 64.164062 42.546875 64.023438 42.578125 63.964844 C 42.605469 63.910156 42.640625 63.761719 42.65625 63.640625 C 42.671875 63.519531 42.707031 63.386719 42.734375 63.339844 C 42.761719 63.296875 42.796875 63.148438 42.816406 63.015625 C 42.832031 62.882812 42.871094 62.726562 42.898438 62.671875 C 42.925781 62.613281 42.960938 62.480469 42.980469 62.367188 C 42.996094 62.253906 43.03125 62.113281 43.0625 62.050781 C 43.097656 61.992188 43.121094 61.886719 43.121094 61.820312 C 43.121094 61.75 43.15625 61.605469 43.203125 61.492188 C 43.246094 61.378906 43.285156 61.222656 43.285156 61.148438 C 43.285156 61.074219 43.3125 60.949219 43.34375 60.871094 C 43.4375 60.644531 43.496094 60.203125 43.445312 60.109375 C 43.402344 60.027344 43.347656 60.027344 40.109375 60.027344 C 36.503906 60.027344 36.609375 60.019531 36.554688 60.265625 C 36.539062 60.324219 36.5 60.410156 36.476562 60.457031 C 36.449219 60.5 36.410156 60.609375 36.394531 60.695312 C 36.378906 60.785156 36.34375 60.894531 36.308594 60.9375 C 36.277344 60.984375 36.253906 61.066406 36.253906 61.117188 C 36.253906 61.167969 36.226562 61.25 36.195312 61.300781 C 36.164062 61.347656 36.117188 61.464844 36.09375 61.550781 C 36.074219 61.640625 36.023438 61.804688 35.984375 61.917969 C 35.945312 62.027344 35.882812 62.210938 35.84375 62.324219 C 35.804688 62.433594 35.753906 62.59375 35.722656 62.671875 C 35.699219 62.746094 35.660156 62.878906 35.640625 62.957031 C 35.621094 63.035156 35.578125 63.15625 35.542969 63.222656 C 35.507812 63.289062 35.480469 63.375 35.480469 63.414062 C 35.480469 63.453125 35.445312 63.554688 35.398438 63.644531 C 35.355469 63.734375 35.316406 63.839844 35.316406 63.886719 C 35.316406 63.929688 35.28125 64.046875 35.238281 64.152344 C 35.191406 64.257812 35.15625 64.375 35.15625 64.414062 C 35.15625 64.449219 35.117188 64.550781 35.074219 64.640625 C 35.03125 64.730469 34.992188 64.828125 34.992188 64.859375 C 34.992188 64.898438 34.960938 65.015625 34.914062 65.128906 C 34.796875 65.445312 34.746094 65.605469 34.703125 65.761719 C 34.6875 65.839844 34.644531 65.960938 34.605469 66.027344 C 34.574219 66.09375 34.546875 66.175781 34.546875 66.21875 C 34.546875 66.257812 34.507812 66.359375 34.464844 66.449219 C 34.417969 66.539062 34.382812 66.648438 34.382812 66.695312 C 34.382812 66.738281 34.347656 66.847656 34.300781 66.9375 C 34.257812 67.027344 34.21875 67.136719 34.21875 67.179688 C 34.21875 67.226562 34.183594 67.335938 34.140625 67.425781 C 34.09375 67.515625 34.058594 67.625 34.058594 67.667969 C 34.058594 67.71875 34.03125 67.808594 33.996094 67.867188 C 33.964844 67.933594 33.921875 68.054688 33.898438 68.140625 C 33.855469 68.320312 33.746094 68.640625 33.664062 68.835938 C 33.636719 68.90625 33.609375 68.992188 33.609375 69.039062 C 33.605469 69.078125 33.574219 69.183594 33.53125 69.273438 C 33.484375 69.363281 33.453125 69.46875 33.449219 69.511719 C 33.449219 69.550781 33.410156 69.652344 33.367188 69.742188 C 33.324219 69.832031 33.285156 69.941406 33.285156 69.984375 C 33.285156 70.03125 33.25 70.140625 33.203125 70.230469 C 33.160156 70.320312 33.125 70.429688 33.125 70.472656 C 33.125 70.523438 33.09375 70.613281 33.0625 70.671875 C 33.03125 70.738281 32.984375 70.859375 32.964844 70.945312 C 32.921875 71.125 32.808594 71.445312 32.730469 71.640625 C 32.699219 71.710938 32.675781 71.796875 32.675781 71.84375 C 32.671875 71.882812 32.640625 71.988281 32.59375 72.078125 C 32.550781 72.167969 32.519531 72.277344 32.515625 72.324219 C 32.515625 72.367188 32.476562 72.472656 32.433594 72.558594 C 32.386719 72.640625 32.351562 72.753906 32.351562 72.808594 C 32.351562 72.863281 32.316406 72.96875 32.269531 73.042969 C 32.226562 73.113281 32.1875 73.21875 32.1875 73.269531 C 32.1875 73.324219 32.160156 73.414062 32.128906 73.476562 C 32.09375 73.542969 32.050781 73.664062 32.03125 73.75 C 32.007812 73.839844 31.960938 73.996094 31.921875 74.109375 C 31.878906 74.21875 31.820312 74.402344 31.777344 74.515625 C 31.742188 74.628906 31.6875 74.785156 31.660156 74.863281 C 31.636719 74.941406 31.59375 75.078125 31.574219 75.167969 C 31.550781 75.257812 31.503906 75.371094 31.472656 75.417969 C 31.441406 75.46875 31.417969 75.5625 31.417969 75.621094 C 31.417969 75.683594 31.378906 75.789062 31.335938 75.859375 C 31.289062 75.921875 31.253906 76.023438 31.253906 76.082031 C 31.253906 76.140625 31.21875 76.257812 31.171875 76.347656 C 31.128906 76.4375 31.089844 76.546875 31.089844 76.589844 C 31.089844 76.636719 31.054688 76.746094 31.011719 76.832031 C 30.964844 76.921875 30.929688 77.027344 30.929688 77.070312 C 30.929688 77.109375 30.898438 77.195312 30.867188 77.257812 C 30.835938 77.320312 30.789062 77.445312 30.769531 77.527344 C 30.714844 77.757812 30.609375 78.074219 30.542969 78.214844 C 30.511719 78.28125 30.472656 78.402344 30.457031 78.480469 C 30.445312 78.558594 30.410156 78.660156 30.378906 78.703125 C 30.351562 78.75 30.316406 78.867188 30.304688 78.964844 C 30.285156 79.0625 30.25 79.179688 30.21875 79.222656 C 30.183594 79.273438 30.15625 79.355469 30.15625 79.40625 C 30.15625 79.457031 30.121094 79.570312 30.074219 79.660156 C 30.03125 79.746094 29.992188 79.839844 29.992188 79.871094 C 29.992188 79.898438 29.96875 79.972656 29.9375 80.027344 C 29.910156 80.085938 29.871094 80.1875 29.855469 80.253906 C 29.804688 80.46875 29.652344 80.796875 29.613281 80.785156 C 29.589844 80.777344 29.558594 80.742188 29.546875 80.710938 C 29.53125 80.679688 29.488281 80.597656 29.457031 80.53125 C 29.421875 80.464844 29.378906 80.335938 29.363281 80.246094 C 29.351562 80.164062 29.3125 80.035156 29.277344 79.976562 C 29.246094 79.914062 29.222656 79.824219 29.222656 79.773438 C 29.21875 79.71875 29.183594 79.605469 29.140625 79.515625 C 29.097656 79.425781 29.0625 79.3125 29.058594 79.261719 C 29.058594 79.210938 29.023438 79.097656 28.976562 79.007812 C 28.933594 78.917969 28.898438 78.804688 28.898438 78.757812 C 28.898438 78.703125 28.867188 78.628906 28.835938 78.589844 C 28.808594 78.546875 28.765625 78.433594 28.753906 78.347656 C 28.738281 78.253906 28.710938 78.15625 28.6875 78.128906 C 28.667969 78.101562 28.625 77.976562 28.585938 77.847656 C 28.554688 77.710938 28.511719 77.589844 28.484375 77.566406 C 28.464844 77.546875 28.449219 77.488281 28.449219 77.441406 C 28.449219 77.390625 28.414062 77.273438 28.367188 77.175781 C 28.324219 77.078125 28.285156 76.960938 28.285156 76.914062 C 28.285156 76.871094 28.25 76.761719 28.207031 76.671875 C 28.160156 76.582031 28.128906 76.472656 28.125 76.425781 C 28.125 76.382812 28.085938 76.277344 28.042969 76.191406 C 28 76.109375 27.960938 76 27.960938 75.949219 C 27.960938 75.898438 27.9375 75.816406 27.90625 75.773438 C 27.871094 75.726562 27.832031 75.617188 27.816406 75.53125 C 27.800781 75.445312 27.761719 75.335938 27.738281 75.289062 C 27.710938 75.246094 27.675781 75.144531 27.660156 75.066406 C 27.648438 74.988281 27.613281 74.867188 27.578125 74.800781 C 27.503906 74.632812 27.394531 74.296875 27.355469 74.132812 C 27.339844 74.054688 27.296875 73.933594 27.257812 73.859375 C 27.222656 73.785156 27.191406 73.691406 27.191406 73.644531 C 27.191406 73.597656 27.152344 73.488281 27.109375 73.398438 C 27.0625 73.308594 27.027344 73.207031 27.027344 73.167969 C 27.027344 73.128906 26.996094 73.003906 26.949219 72.890625 C 26.847656 72.621094 26.789062 72.441406 26.722656 72.222656 C 26.605469 71.835938 26.40625 71.257812 26.332031 71.089844 C 26.292969 70.996094 26.253906 70.875 26.253906 70.828125 C 26.25 70.777344 26.21875 70.664062 26.171875 70.574219 C 26.128906 70.484375 26.097656 70.378906 26.09375 70.339844 C 26.09375 70.296875 26.054688 70.195312 26.011719 70.109375 C 25.964844 70.019531 25.929688 69.917969 25.929688 69.875 C 25.929688 69.835938 25.898438 69.714844 25.851562 69.601562 C 25.75 69.324219 25.691406 69.144531 25.625 68.929688 C 25.550781 68.679688 25.484375 68.488281 25.410156 68.320312 C 25.378906 68.242188 25.335938 68.113281 25.316406 68.035156 C 25.28125 67.855469 25.167969 67.539062 25.070312 67.3125 C 25.027344 67.21875 24.996094 67.101562 24.996094 67.054688 C 24.996094 67.011719 24.957031 66.90625 24.914062 66.816406 C 24.867188 66.726562 24.832031 66.617188 24.832031 66.570312 C 24.832031 66.523438 24.8125 66.445312 24.789062 66.398438 C 24.757812 66.351562 24.714844 66.226562 24.6875 66.125 C 24.65625 66.023438 24.589844 65.8125 24.527344 65.65625 C 24.464844 65.5 24.40625 65.308594 24.386719 65.230469 C 24.339844 65.042969 24.230469 64.722656 24.136719 64.507812 C 24.09375 64.414062 24.058594 64.296875 24.058594 64.25 C 24.058594 64.207031 24.023438 64.101562 23.980469 64.011719 C 23.933594 63.921875 23.898438 63.8125 23.898438 63.765625 C 23.898438 63.71875 23.875 63.640625 23.847656 63.59375 C 23.820312 63.542969 23.777344 63.421875 23.746094 63.320312 C 23.6875 63.089844 23.582031 62.761719 23.515625 62.609375 C 23.429688 62.40625 23.324219 62.089844 23.292969 61.9375 C 23.277344 61.863281 23.230469 61.738281 23.195312 61.667969 C 23.15625 61.59375 23.125 61.5 23.125 61.449219 C 23.125 61.40625 23.089844 61.296875 23.042969 61.207031 C 23 61.117188 22.960938 61.015625 22.960938 60.976562 C 22.960938 60.929688 22.925781 60.828125 22.882812 60.738281 C 22.835938 60.648438 22.800781 60.542969 22.800781 60.503906 C 22.800781 60.414062 22.652344 60.15625 22.566406 60.078125 C 22.515625 60.039062 21.78125 60.027344 19.199219 60.027344 C 16.253906 60.027344 15.890625 60.035156 15.835938 60.09375 Z M 15.835938 60.09375 "/>
<path style=" stroke:none;fill-rule:nonzero;fill:rgb(0%,0%,0%);fill-opacity:1;" d="M 50.617188 60.128906 C 50.554688 60.222656 50.550781 61.316406 50.570312 73.960938 C 50.585938 87.617188 50.589844 87.863281 50.714844 87.867188 C 50.730469 87.867188 56.949219 87.875 64.53125 87.878906 C 78.144531 87.886719 78.324219 87.886719 78.382812 87.8125 C 78.46875 87.691406 78.46875 60.246094 78.382812 60.125 C 78.324219 60.046875 78.128906 60.046875 64.503906 60.035156 L 50.683594 60.027344 Z M 71.410156 67.101562 C 71.488281 67.179688 71.488281 67.234375 71.480469 74.035156 C 71.46875 80.070312 71.460938 80.886719 71.410156 80.917969 C 71.3125 80.980469 57.617188 80.972656 57.558594 80.910156 C 57.519531 80.875 57.507812 79.285156 57.507812 74.007812 C 57.507812 70.242188 57.523438 67.140625 57.542969 67.117188 C 57.558594 67.09375 57.597656 67.058594 57.628906 67.046875 C 57.664062 67.035156 60.761719 67.023438 64.511719 67.023438 C 71.273438 67.019531 71.332031 67.023438 71.410156 67.101562 Z M 71.410156 67.101562 "/>
<path style=" stroke:none;fill-rule:nonzero;fill:rgb(0%,0%,0%);fill-opacity:1;" d="M 85.527344 60.089844 C 85.449219 60.140625 85.449219 60.457031 85.4375 73.964844 C 85.429688 87.574219 85.429688 87.78125 85.507812 87.828125 C 85.59375 87.871094 106.054688 87.886719 106.171875 87.84375 C 106.210938 87.832031 106.253906 87.769531 106.269531 87.710938 C 106.320312 87.535156 106.308594 81.050781 106.253906 81 C 106.226562 80.972656 104.179688 80.960938 99.339844 80.960938 C 93.101562 80.960938 92.460938 80.957031 92.402344 80.894531 C 92.34375 80.835938 92.339844 79.898438 92.339844 70.484375 C 92.339844 62.710938 92.332031 60.125 92.292969 60.085938 C 92.226562 60 85.640625 60.003906 85.527344 60.089844 Z M 85.527344 60.089844 "/>
<path style=" stroke:none;fill-rule:nonzero;fill:rgb(0%,0%,0%);fill-opacity:1;" d="M 102.785156 95.019531 L 99.472656 95.042969 L 99.460938 108.761719 C 99.453125 122.082031 99.457031 122.484375 99.527344 122.550781 C 99.597656 122.613281 100.089844 122.617188 106.34375 122.617188 L 113.082031 122.617188 L 113.238281 122.515625 C 113.339844 122.445312 113.390625 122.382812 113.390625 122.320312 C 113.390625 122.273438 113.429688 122.164062 113.472656 122.078125 C 113.519531 121.996094 113.554688 121.878906 113.554688 121.816406 C 113.554688 121.75 113.589844 121.644531 113.636719 121.582031 C 113.679688 121.511719 113.714844 121.402344 113.714844 121.335938 C 113.714844 121.269531 113.742188 121.175781 113.773438 121.128906 C 113.804688 121.085938 113.84375 120.976562 113.859375 120.886719 C 113.875 120.800781 113.910156 120.691406 113.941406 120.640625 C 113.972656 120.59375 114.007812 120.484375 114.027344 120.398438 C 114.042969 120.3125 114.078125 120.203125 114.101562 120.160156 C 114.132812 120.113281 114.167969 120.003906 114.183594 119.917969 C 114.199219 119.828125 114.238281 119.71875 114.269531 119.675781 C 114.300781 119.628906 114.328125 119.542969 114.328125 119.488281 C 114.328125 119.429688 114.363281 119.316406 114.40625 119.230469 C 114.453125 119.152344 114.488281 119.039062 114.488281 118.988281 C 114.488281 118.9375 114.527344 118.828125 114.570312 118.746094 C 114.613281 118.664062 114.652344 118.558594 114.652344 118.511719 C 114.652344 118.464844 114.6875 118.359375 114.734375 118.269531 C 114.777344 118.179688 114.8125 118.066406 114.8125 118.015625 C 114.8125 117.964844 114.839844 117.882812 114.871094 117.835938 C 114.902344 117.792969 114.941406 117.683594 114.957031 117.59375 C 114.972656 117.507812 115.007812 117.398438 115.039062 117.355469 C 115.0625 117.308594 115.097656 117.199219 115.113281 117.113281 C 115.132812 117.023438 115.171875 116.914062 115.203125 116.871094 C 115.238281 116.824219 115.261719 116.742188 115.261719 116.683594 C 115.261719 116.625 115.296875 116.511719 115.34375 116.425781 C 115.386719 116.347656 115.421875 116.226562 115.421875 116.167969 C 115.421875 116.101562 115.460938 115.996094 115.503906 115.933594 C 115.550781 115.863281 115.585938 115.757812 115.585938 115.695312 C 115.585938 115.636719 115.621094 115.511719 115.667969 115.433594 C 115.707031 115.351562 115.757812 115.210938 115.769531 115.128906 C 115.78125 115.046875 115.808594 114.976562 115.832031 114.976562 C 115.851562 114.976562 115.878906 114.890625 115.894531 114.78125 C 115.90625 114.675781 115.945312 114.5625 115.972656 114.53125 C 116 114.496094 116.039062 114.394531 116.050781 114.304688 C 116.066406 114.214844 116.101562 114.105469 116.132812 114.0625 C 116.160156 114.015625 116.195312 113.90625 116.210938 113.824219 C 116.226562 113.734375 116.269531 113.625 116.300781 113.578125 C 116.335938 113.535156 116.359375 113.449219 116.359375 113.390625 C 116.359375 113.335938 116.394531 113.222656 116.441406 113.136719 C 116.484375 113.054688 116.519531 112.9375 116.519531 112.875 C 116.519531 112.808594 116.558594 112.703125 116.601562 112.640625 C 116.648438 112.570312 116.683594 112.460938 116.683594 112.394531 C 116.683594 112.328125 116.71875 112.21875 116.765625 112.152344 C 116.808594 112.082031 116.847656 111.972656 116.847656 111.90625 C 116.847656 111.839844 116.871094 111.746094 116.902344 111.699219 C 116.9375 111.65625 116.976562 111.546875 116.992188 111.457031 C 117.007812 111.371094 117.046875 111.261719 117.074219 111.21875 C 117.101562 111.171875 117.140625 111.0625 117.15625 110.972656 C 117.167969 110.882812 117.203125 110.78125 117.230469 110.75 C 117.261719 110.71875 117.292969 110.609375 117.308594 110.515625 C 117.324219 110.417969 117.363281 110.308594 117.394531 110.273438 C 117.425781 110.242188 117.457031 110.160156 117.457031 110.09375 C 117.457031 110.03125 117.492188 109.910156 117.535156 109.828125 C 117.582031 109.742188 117.617188 109.628906 117.617188 109.570312 C 117.617188 109.515625 117.65625 109.414062 117.699219 109.347656 C 117.746094 109.277344 117.78125 109.160156 117.78125 109.078125 C 117.78125 109 117.808594 108.910156 117.84375 108.878906 C 117.875 108.851562 117.910156 108.765625 117.925781 108.679688 C 117.9375 108.601562 117.988281 108.460938 118.027344 108.367188 C 118.070312 108.277344 118.105469 108.164062 118.105469 108.113281 C 118.105469 108.0625 118.128906 107.980469 118.164062 107.933594 C 118.195312 107.882812 118.230469 107.765625 118.25 107.671875 C 118.265625 107.578125 118.300781 107.480469 118.332031 107.453125 C 118.367188 107.429688 118.390625 107.351562 118.390625 107.289062 C 118.390625 107.222656 118.425781 107.101562 118.472656 107.011719 C 118.515625 106.921875 118.554688 106.816406 118.554688 106.765625 C 118.554688 106.722656 118.589844 106.617188 118.632812 106.535156 C 118.679688 106.449219 118.714844 106.335938 118.714844 106.277344 C 118.714844 106.222656 118.738281 106.136719 118.773438 106.09375 C 118.804688 106.046875 118.839844 105.9375 118.859375 105.847656 C 118.875 105.761719 118.910156 105.652344 118.9375 105.605469 C 118.972656 105.554688 119.007812 105.445312 119.023438 105.359375 C 119.039062 105.273438 119.078125 105.164062 119.101562 105.121094 C 119.128906 105.078125 119.167969 104.964844 119.183594 104.882812 C 119.199219 104.792969 119.234375 104.683594 119.269531 104.636719 C 119.300781 104.59375 119.324219 104.511719 119.324219 104.453125 C 119.324219 104.402344 119.363281 104.285156 119.402344 104.191406 C 119.449219 104.097656 119.492188 103.953125 119.507812 103.867188 C 119.519531 103.789062 119.550781 103.71875 119.570312 103.71875 C 119.589844 103.71875 119.617188 103.648438 119.628906 103.5625 C 119.644531 103.484375 119.691406 103.339844 119.734375 103.246094 C 119.777344 103.152344 119.8125 103.035156 119.8125 102.984375 C 119.8125 102.925781 119.835938 102.84375 119.871094 102.800781 C 119.902344 102.753906 119.941406 102.644531 119.960938 102.554688 C 119.976562 102.472656 120.011719 102.359375 120.035156 102.316406 C 120.066406 102.273438 120.101562 102.164062 120.117188 102.078125 C 120.132812 101.988281 120.171875 101.878906 120.203125 101.832031 C 120.234375 101.789062 120.261719 101.703125 120.261719 101.644531 C 120.261719 101.589844 120.296875 101.476562 120.339844 101.390625 C 120.386719 101.308594 120.421875 101.191406 120.421875 101.128906 C 120.421875 101.066406 120.460938 100.960938 120.503906 100.894531 C 120.546875 100.824219 120.585938 100.722656 120.585938 100.664062 C 120.585938 100.601562 120.621094 100.492188 120.667969 100.417969 C 120.710938 100.34375 120.746094 100.242188 120.746094 100.191406 C 120.746094 100.140625 120.785156 100.03125 120.828125 99.953125 C 120.875 99.867188 120.910156 99.753906 120.910156 99.695312 C 120.910156 99.636719 120.9375 99.5625 120.972656 99.519531 C 121 99.476562 121.039062 99.367188 121.050781 99.277344 C 121.070312 99.183594 121.105469 99.070312 121.128906 99.023438 C 121.160156 98.980469 121.195312 98.871094 121.210938 98.785156 C 121.226562 98.695312 121.269531 98.585938 121.300781 98.539062 C 121.332031 98.496094 121.359375 98.410156 121.359375 98.355469 C 121.359375 98.296875 121.394531 98.183594 121.4375 98.097656 C 121.484375 98.015625 121.519531 97.90625 121.519531 97.863281 C 121.519531 97.8125 121.554688 97.699219 121.597656 97.605469 C 121.640625 97.511719 121.6875 97.371094 121.703125 97.285156 C 121.714844 97.203125 121.742188 97.132812 121.765625 97.132812 C 121.785156 97.132812 121.8125 97.066406 121.824219 96.980469 C 121.835938 96.898438 121.875 96.773438 121.90625 96.707031 C 121.9375 96.640625 121.980469 96.519531 121.992188 96.445312 C 122.007812 96.367188 122.039062 96.265625 122.070312 96.21875 C 122.09375 96.175781 122.128906 96.066406 122.144531 95.980469 C 122.164062 95.894531 122.199219 95.785156 122.230469 95.738281 C 122.257812 95.6875 122.296875 95.578125 122.3125 95.488281 C 122.328125 95.398438 122.355469 95.304688 122.382812 95.277344 C 122.402344 95.25 122.414062 95.1875 122.40625 95.136719 L 122.394531 95.042969 L 118.835938 95.019531 L 115.28125 95 L 115.171875 95.097656 C 115.105469 95.15625 115.058594 95.238281 115.058594 95.28125 C 115.058594 95.332031 115.019531 95.441406 114.980469 95.53125 C 114.941406 95.617188 114.894531 95.761719 114.878906 95.847656 C 114.863281 95.925781 114.835938 95.996094 114.8125 95.996094 C 114.796875 95.996094 114.761719 96.089844 114.734375 96.207031 C 114.707031 96.324219 114.671875 96.429688 114.648438 96.445312 C 114.628906 96.460938 114.597656 96.542969 114.582031 96.628906 C 114.570312 96.714844 114.539062 96.816406 114.503906 96.851562 C 114.476562 96.882812 114.441406 96.984375 114.425781 97.074219 C 114.40625 97.164062 114.371094 97.273438 114.347656 97.316406 C 114.316406 97.363281 114.285156 97.460938 114.269531 97.535156 C 114.257812 97.613281 114.21875 97.707031 114.1875 97.742188 C 114.160156 97.777344 114.125 97.875 114.109375 97.964844 C 114.097656 98.050781 114.058594 98.152344 114.023438 98.191406 C 113.988281 98.226562 113.960938 98.3125 113.960938 98.378906 C 113.960938 98.445312 113.925781 98.550781 113.878906 98.617188 C 113.835938 98.683594 113.796875 98.785156 113.796875 98.839844 C 113.796875 98.898438 113.761719 98.996094 113.714844 99.066406 C 113.671875 99.128906 113.636719 99.234375 113.636719 99.292969 C 113.636719 99.355469 113.609375 99.421875 113.578125 99.449219 C 113.546875 99.476562 113.503906 99.574219 113.492188 99.667969 C 113.476562 99.761719 113.441406 99.867188 113.410156 99.898438 C 113.382812 99.929688 113.347656 100.03125 113.332031 100.121094 C 113.320312 100.210938 113.28125 100.3125 113.253906 100.34375 C 113.222656 100.378906 113.1875 100.476562 113.175781 100.566406 C 113.164062 100.648438 113.125 100.75 113.085938 100.792969 C 113.054688 100.828125 113.027344 100.90625 113.027344 100.960938 C 113.027344 101.011719 112.988281 101.125 112.945312 101.210938 C 112.898438 101.292969 112.863281 101.402344 112.863281 101.449219 C 112.863281 101.503906 112.828125 101.597656 112.78125 101.667969 C 112.738281 101.730469 112.699219 101.835938 112.699219 101.898438 C 112.699219 101.957031 112.675781 102.03125 112.644531 102.066406 C 112.609375 102.097656 112.570312 102.195312 112.554688 102.28125 C 112.542969 102.367188 112.503906 102.46875 112.476562 102.5 C 112.449219 102.53125 112.414062 102.632812 112.394531 102.722656 C 112.382812 102.8125 112.347656 102.914062 112.320312 102.945312 C 112.285156 102.980469 112.253906 103.078125 112.242188 103.167969 C 112.230469 103.25 112.1875 103.351562 112.152344 103.394531 C 112.121094 103.429688 112.089844 103.507812 112.089844 103.558594 C 112.089844 103.613281 112.054688 103.726562 112.007812 103.8125 C 111.964844 103.894531 111.929688 104.003906 111.929688 104.050781 C 111.929688 104.105469 111.890625 104.199219 111.847656 104.265625 C 111.800781 104.332031 111.765625 104.433594 111.765625 104.492188 C 111.765625 104.546875 111.730469 104.644531 111.683594 104.714844 C 111.640625 104.78125 111.601562 104.886719 111.601562 104.945312 C 111.601562 105.007812 111.578125 105.082031 111.546875 105.113281 C 111.515625 105.144531 111.472656 105.242188 111.457031 105.328125 C 111.441406 105.414062 111.402344 105.523438 111.375 105.566406 C 111.351562 105.613281 111.316406 105.714844 111.296875 105.792969 C 111.28125 105.867188 111.246094 105.96875 111.21875 106.015625 C 111.1875 106.058594 111.152344 106.160156 111.140625 106.242188 C 111.125 106.328125 111.085938 106.414062 111.054688 106.441406 C 111.023438 106.46875 110.992188 106.539062 110.992188 106.601562 C 110.992188 106.65625 110.957031 106.773438 110.914062 106.859375 C 110.867188 106.941406 110.832031 107.050781 110.832031 107.101562 C 110.832031 107.152344 110.792969 107.246094 110.75 107.316406 C 110.707031 107.378906 110.667969 107.484375 110.667969 107.546875 C 110.667969 107.609375 110.644531 107.679688 110.613281 107.714844 C 110.578125 107.746094 110.539062 107.84375 110.527344 107.929688 C 110.511719 108.015625 110.472656 108.125 110.445312 108.167969 C 110.417969 108.214844 110.378906 108.316406 110.363281 108.394531 C 110.347656 108.46875 110.308594 108.570312 110.277344 108.617188 C 110.246094 108.660156 110.222656 108.734375 110.222656 108.777344 C 110.222656 108.824219 110.183594 108.929688 110.140625 109.015625 C 110.09375 109.097656 110.058594 109.207031 110.058594 109.253906 C 110.058594 109.308594 110.023438 109.402344 109.976562 109.46875 C 109.933594 109.535156 109.894531 109.636719 109.894531 109.691406 C 109.894531 109.75 109.859375 109.847656 109.816406 109.917969 C 109.769531 109.980469 109.734375 110.078125 109.734375 110.132812 C 109.734375 110.179688 109.695312 110.289062 109.652344 110.371094 C 109.609375 110.457031 109.570312 110.558594 109.570312 110.59375 C 109.570312 110.636719 109.535156 110.738281 109.488281 110.820312 C 109.445312 110.902344 109.410156 111.011719 109.410156 111.054688 C 109.410156 111.097656 109.378906 111.171875 109.347656 111.214844 C 109.316406 111.257812 109.285156 111.332031 109.285156 111.378906 C 109.285156 111.425781 109.25 111.53125 109.207031 111.617188 C 109.160156 111.695312 109.125 111.796875 109.125 111.839844 C 109.125 111.875 109.085938 111.976562 109.042969 112.0625 C 109 112.144531 108.960938 112.246094 108.960938 112.285156 C 108.960938 112.324219 108.925781 112.425781 108.878906 112.507812 C 108.835938 112.589844 108.800781 112.699219 108.800781 112.75 C 108.800781 112.800781 108.761719 112.894531 108.71875 112.964844 C 108.671875 113.03125 108.636719 113.128906 108.636719 113.179688 C 108.636719 113.230469 108.601562 113.339844 108.554688 113.421875 C 108.511719 113.503906 108.472656 113.613281 108.472656 113.664062 C 108.472656 113.710938 108.449219 113.777344 108.421875 113.804688 C 108.386719 113.835938 108.351562 113.933594 108.335938 114.023438 C 108.320312 114.109375 108.28125 114.21875 108.253906 114.265625 C 108.226562 114.308594 108.1875 114.417969 108.171875 114.503906 C 108.15625 114.589844 108.117188 114.6875 108.082031 114.71875 C 108.050781 114.753906 108.027344 114.828125 108.027344 114.886719 C 108.027344 114.949219 107.992188 115.058594 107.945312 115.132812 C 107.902344 115.203125 107.863281 115.289062 107.863281 115.320312 C 107.863281 115.355469 107.828125 115.453125 107.78125 115.535156 C 107.738281 115.617188 107.703125 115.71875 107.703125 115.757812 C 107.703125 115.898438 107.480469 115.960938 106.945312 115.960938 C 106.367188 115.960938 106.261719 115.921875 106.226562 115.699219 C 106.214844 115.625 106.203125 110.957031 106.203125 105.324219 C 106.203125 99.691406 106.203125 95.070312 106.199219 95.058594 C 106.199219 95.042969 106.171875 95.027344 106.148438 95.015625 C 106.121094 95.007812 104.605469 95.007812 102.785156 95.019531 Z M 102.785156 95.019531 "/>
</g>
</svg>
